<?xml version="1.0" encoding="iso-8859-1"?>
<!-- Uploaded to: SVG Repo, www.svgrepo.com, Generator: SVG Repo Mixer Tools -->
<!DOCTYPE svg PUBLIC "-//W3C//DTD SVG 1.1//EN" "http://www.w3.org/Graphics/SVG/1.1/DTD/svg11.dtd">
<svg fill="#000000" version="1.1" id="Capa_1" xmlns="http://www.w3.org/2000/svg" xmlns:xlink="http://www.w3.org/1999/xlink" 
	 width="800px" height="800px" viewBox="0 0 50.456 50.455"
	 xml:space="preserve">
<g>
	<path d="M36.993,11.733H35.82l-0.549-6.246C35.245,2.457,32.831,0,29.872,0h-8.684c-2.96,0-5.372,2.457-5.401,5.487l-0.55,6.246
		h-1.773c-2.176,0-3.94,1.765-3.94,3.94v4.282c0,1.948,1.416,3.563,3.272,3.881c-0.001,0.044-0.012,0.086-0.012,0.13v0.647
		c0,1.557,1.26,2.817,2.815,2.817c1.557,0,2.816-1.261,2.816-2.817v-0.647c0-0.022-0.006-0.045-0.006-0.067h1.994v2.125h1.369
		v22.035l1.984,1.301V26.021h0.685V49.77l0.787,0.686l3.661-3.627v-1.438l-1.096-0.41l1.096-0.821v-0.753l-2.395-1.916l2.053-2.19
		l-0.754-0.958l0.754-0.615V36.7l-1.438-1.573l0.685-1.506l-1.299-1.164v-1.506l2.053-1.916v-3.012h1.506V23.9h2.5v0.322
		c0,1.556,1.262,2.816,2.816,2.816s2.815-1.261,2.815-2.816v-0.509c1.592-0.506,2.746-1.996,2.746-3.756v-4.282
		C40.933,13.498,39.17,11.733,36.993,11.733z M15.6,20.758c-1.098,0-1.987-0.89-1.987-1.987s0.89-1.987,1.987-1.987
		c1.097,0,1.987,0.89,1.987,1.987S16.698,20.758,15.6,20.758z M17.601,11.733l0.536-6.089l0.005-0.103
		c0-1.758,1.366-3.187,3.046-3.187h8.684c1.68,0,3.045,1.429,3.045,3.187l0.545,6.191L17.601,11.733L17.601,11.733z M35.372,20.953
		c-1.098,0-1.986-0.891-1.986-1.988c0-1.097,0.89-1.987,1.986-1.987c1.098,0,1.986,0.891,1.986,1.987
		C37.358,20.063,36.467,20.953,35.372,20.953z"/>
</g>
</svg>